<svg width="640" height="512" xmlns="http://www.w3.org/2000/svg" xmlns:xlink="http://www.w3.org/1999/xlink" xml:space="preserve" overflow="hidden"><g transform="translate(-640 -91)"><path d="M640 427C640 506.5 704.5 571 784 571L1152 571C1222.7 571 1280 513.7 1280 443 1280 381.1 1236 329.4 1177.6 317.6 1181.7 306.9 1184 295.2 1184 283 1184 230 1141 187 1088 187 1068.3 187 1049.9 193 1034.7 203.2 1007 155.2 955.3 123 896 123 807.6 123 736 194.6 736 283 736 285.7 736.1 288.4 736.2 291.1 680.2 310.8 640 364.2 640 427Z" fill="#AFABAB"/></g></svg>