<svg width="320" height="512" xmlns="http://www.w3.org/2000/svg" xmlns:xlink="http://www.w3.org/1999/xlink" xml:space="preserve" overflow="hidden"><g transform="translate(-871 -104)"><path d="M1031 168C1004.5 168 983 189.5 983 216L983 380.5C983 397.8 975.9 412.4 967.7 423 957.2 436.6 951 453.5 951 472 951 516.2 986.8 552 1031 552 1075.2 552 1111 516.2 1111 472 1111 453.5 1104.8 436.6 1094.3 423.1 1086.1 412.5 1079 397.9 1079 380.6L1079 216C1079 189.5 1057.5 168 1031 168ZM919 216C919 154.2 969.1 104 1031 104 1092.9 104 1143 154.1 1143 216L1143 380.5C1143 380.6 1143.1 380.8 1143.2 381.1 1143.4 381.7 1144 382.7 1144.9 383.9 1163.8 408.3 1175 438.9 1175 472 1175 551.5 1110.5 616 1031 616 951.5 616 887 551.5 887 472 887 438.8 898.2 408.2 917.1 383.9 918 382.7 918.6 381.7 918.8 381.1 918.9 380.8 919 380.6 919 380.5L919 216ZM1079 472C1079 498.5 1057.5 520 1031 520 1004.5 520 983 498.5 983 472 983 451.1 996.4 433.3 1015 426.7L1015 216C1015 207.2 1022.2 200 1031 200 1039.8 200 1047 207.2 1047 216L1047 426.7C1065.6 433.3 1079 451.1 1079 472Z" fill="#FF0000"/></g></svg>