<svg width="512" height="512" xmlns="http://www.w3.org/2000/svg" xmlns:xlink="http://www.w3.org/1999/xlink" xml:space="preserve" overflow="hidden"><g transform="translate(-42 -92)"><path d="M138 412C85 412 42 369 42 316 42 273.5 69.6 237.4 107.9 224.8 106.7 218.1 106 211.1 106 204 106 142.1 156.1 92 218 92 261.1 92 298.5 116.3 317.2 152 331.9 134.9 353.7 124 378 124 422.2 124 458 159.8 458 204 458 209.5 457.4 214.8 456.4 220 456.9 220 457.5 220 458 220 511 220 554 263 554 316 554 369 511 412 458 412L138 412ZM131.2 464C132.5 461.5 135.1 460 138 460 140.9 460 143.4 461.5 144.8 464L179.9 528.6C184 536.1 186.1 544.4 186.1 552.9L186.1 555.9C186.1 582.4 164.6 603.9 138.1 603.9 111.6 603.9 90.1 582.4 90.1 555.9L90.1 552.9C90.1 544.4 92.2 536 96.3 528.6L131.2 464ZM291.2 464C292.5 461.5 295.1 460 298 460 300.9 460 303.4 461.5 304.8 464L339.9 528.6C344 536.1 346.1 544.4 346.1 552.9L346.1 555.9C346.1 582.4 324.6 603.9 298.1 603.9 271.6 603.9 250.1 582.4 250.1 555.9L250.1 552.9C250.1 544.4 252.2 536 256.3 528.6L291.2 464ZM416.1 528.6 451.2 464C452.5 461.5 455.1 460 458 460 460.9 460 463.4 461.5 464.8 464L499.9 528.6C504 536.1 506.1 544.4 506.1 552.9L506.1 555.9C506.1 582.4 484.6 603.9 458.1 603.9 431.6 603.9 410.1 582.4 410.1 555.9L410.1 552.9C410.1 544.4 412.2 536 416.3 528.6Z" fill="#2F5597"/></g></svg>