<svg width="512" height="512" xmlns="http://www.w3.org/2000/svg" xmlns:xlink="http://www.w3.org/1999/xlink" xml:space="preserve" overflow="hidden"><g transform="translate(-751 -92)"><path d="M751 316C751 369 794 412 847 412L894.2 412 1041 294.5C1058.6 280.4 1083.6 280.5 1101.2 294.7 1118.8 308.9 1124 333.3 1114 353.5L1084.7 412 1103 412 1167 412C1220 412 1263 369 1263 316 1263 263 1220 220 1167 220 1166.5 220 1165.9 220 1165.4 220 1166.5 214.8 1167 209.5 1167 204 1167 159.8 1131.2 124 1087 124 1062.7 124 1040.9 134.9 1026.2 152 1007.5 116.3 970.1 92 927 92 865.1 92 815 142.1 815 204 815 211.1 815.7 218.1 816.9 224.8 778.6 237.4 751 273.5 751 316ZM1081.1 319.6C1075.3 314.9 1066.9 314.9 1061 319.5L901 447.5C895.7 451.7 893.6 458.9 895.9 465.3 898.2 471.7 904.2 476 911 476L981.1 476 928.7 580.8C925.3 587.5 927.1 595.7 933 600.4 938.9 605.1 947.2 605.1 953.1 600.5L1113.1 472.5C1118.4 468.3 1120.5 461.1 1118.2 454.7 1115.9 448.3 1109.9 444 1103.1 444L1032.9 444 1085.3 339.2C1088.7 332.5 1086.9 324.3 1081.1 319.6Z" fill="#BF9000"/></g></svg>