<svg width="512" height="512" xmlns="http://www.w3.org/2000/svg" xmlns:xlink="http://www.w3.org/1999/xlink" xml:space="preserve" overflow="hidden"><defs><clipPath id="clip0"><rect x="19" y="104" width="512" height="512"/></clipPath></defs><g clip-path="url(#clip0)" transform="translate(-19 -104)"><path d="M380.5 105.2C385.5 107.3 389.1 111.8 390.1 117.1L410 225 517.9 244.8C523.2 245.8 527.7 249.4 529.8 254.4 531.9 259.4 531.3 265.1 528.2 269.6L465.9 360 528.2 450.3C531.3 454.8 531.9 460.5 529.8 465.5 527.7 470.5 523.2 474.1 517.9 475.1L410 495 390.1 602.9C389.1 608.2 385.5 612.7 380.5 614.8 375.5 616.9 369.8 616.3 365.3 613.2L275 550.9 184.7 613.2C180.2 616.3 174.5 616.9 169.5 614.8 164.5 612.7 160.9 608.2 159.9 602.9L140 495 32.1 475.1C26.8 474.1 22.3 470.5 20.2 465.5 18.1 460.5 18.7 454.8 21.8 450.3L84.1 360 21.8 269.7C18.7 265.2 18.1 259.5 20.2 254.5 22.3 249.5 26.8 245.9 32.1 244.9L140 225 159.9 117.1C160.9 111.8 164.5 107.3 169.5 105.2 174.5 103.1 180.2 103.7 184.7 106.8L275 169.1 365.3 106.8C369.8 103.7 375.5 103.1 380.5 105.2ZM179 360C179 306.981 221.981 264 275 264 328.019 264 371 306.981 371 360 371 413.019 328.019 456 275 456 221.981 456 179 413.019 179 360ZM403 360C403 289.308 345.692 232 275 232 204.308 232 147 289.308 147 360 147 430.692 204.308 488 275 488 345.692 488 403 430.692 403 360Z" fill="#FFC000"/></g></svg>