<svg width="320" height="512" xmlns="http://www.w3.org/2000/svg" xmlns:xlink="http://www.w3.org/1999/xlink" xml:space="preserve" overflow="hidden"><g transform="translate(-480 -104)"><path d="M640 168C613.5 168 592 189.5 592 216L592 380.5C592 397.8 584.9 412.4 576.7 423 566.2 436.6 560 453.5 560 472 560 516.2 595.8 552 640 552 684.2 552 720 516.2 720 472 720 453.5 713.8 436.6 703.3 423.1 695.1 412.5 688 397.9 688 380.6L688 216C688 189.5 666.5 168 640 168ZM528 216C528 154.2 578.1 104 640 104 701.9 104 752 154.1 752 216L752 380.5C752 380.6 752.1 380.8 752.2 381.1 752.4 381.7 753 382.7 753.9 383.9 772.8 408.3 784 438.9 784 472 784 551.5 719.5 616 640 616 560.5 616 496 551.5 496 472 496 438.8 507.2 408.2 526.1 383.9 527 382.7 527.6 381.7 527.8 381.1 527.9 380.8 528 380.6 528 380.5L528 216ZM688 472C688 498.5 666.5 520 640 520 613.5 520 592 498.5 592 472 592 451.1 605.4 433.3 624 426.7L624 312C624 303.2 631.2 296 640 296 648.8 296 656 303.2 656 312L656 426.7C674.6 433.3 688 451.1 688 472Z" fill="#ED7D31"/></g></svg>